<svg width="50" height="38" viewBox="0 0 50 38" fill="none" xmlns="http://www.w3.org/2000/svg">
<g clip-path="url(#clip0)">
<rect width="50" height="37.7305" fill="white" fill-opacity="0.01"></rect>
<path d="M5.66098 33.9908H5.14868V20.082C5.14868 19.6744 5.3106 19.2834 5.59882 18.9952C5.88705 18.707 6.27796 18.5451 6.68557 18.5451H44.4161V19.0574H6.68557C6.41383 19.0574 6.15322 19.1653 5.96107 19.3575C5.76892 19.5496 5.66098 19.8102 5.66098 20.082V33.9908Z" fill="#8777D9"></path>
<path d="M25.2561 32.377H3.71411V32.8893H25.2561V32.377Z" fill="#5243AA"></path>
<path d="M17.5973 37.7305L25.2561 26.8955L32.9149 37.7305H17.5973Z" fill="#253858"></path>
<path d="M10.835 26.8955H0V37.7229H10.835V26.8955Z" fill="#8777D9"></path>
<path d="M25.2818 0H25.2562C22.2712 0 19.8514 2.41977 19.8514 5.40471V5.42264C19.8514 8.40758 22.2712 10.8274 25.2562 10.8274H25.2818C28.2667 10.8274 30.6865 8.40758 30.6865 5.42264V5.40471C30.6865 2.41977 28.2667 0 25.2818 0Z" fill="#8777D9"></path>
<path d="M45.0307 16.291H44.5184V7.14651C44.5184 6.99177 44.4879 6.83855 44.4287 6.6956C44.3695 6.55264 44.2827 6.42275 44.1733 6.31334C44.0639 6.20392 43.934 6.11713 43.791 6.05792C43.6481 5.99871 43.4949 5.96823 43.3401 5.96823H25.2561V5.45593H43.3401C43.7885 5.45593 44.2185 5.63405 44.5355 5.95109C44.8526 6.26813 45.0307 6.69814 45.0307 7.14651V16.291Z" fill="#8777D9"></path>
<path d="M19.8515 5.45593H5.40479V5.96823H19.8515V5.45593Z" fill="#5243AA"></path>
<path d="M5.43033 0.281769H5.40471C2.41977 0.281769 0 2.70154 0 5.68648V5.70441C0 8.68935 2.41977 11.1091 5.40471 11.1091H5.43033C8.41527 11.1091 10.835 8.68935 10.835 5.70441V5.68648C10.835 2.70154 8.41527 0.281769 5.43033 0.281769Z" fill="#5243AA"></path>
<path d="M50 13.3965H39.1649V24.2239H50V13.3965Z" fill="#5243AA"></path>
<path d="M14.3699 7.8125C14.3029 7.80906 14.2393 7.78181 14.1906 7.73566C14.1437 7.68778 14.1174 7.6234 14.1174 7.55636C14.1174 7.48931 14.1437 7.42493 14.1906 7.37705L15.8812 5.71209L14.1906 4.02152C14.1612 3.9995 14.137 3.97143 14.1194 3.93921C14.1018 3.90699 14.0914 3.87137 14.0888 3.83476C14.0862 3.79815 14.0915 3.76142 14.1043 3.72703C14.1171 3.69265 14.1372 3.66143 14.1632 3.63548C14.1891 3.60953 14.2203 3.58946 14.2547 3.57663C14.2891 3.56379 14.3258 3.5585 14.3624 3.5611C14.399 3.5637 14.4347 3.57414 14.4669 3.5917C14.4991 3.60927 14.5272 3.63356 14.5492 3.66291L16.5984 5.71209L14.5492 7.73566C14.5267 7.7608 14.4991 7.78071 14.4681 7.79398C14.4371 7.80726 14.4036 7.81358 14.3699 7.8125Z" fill="#5243AA"></path>
<path d="M15.0102 34.7336C14.9765 34.7347 14.943 34.7284 14.912 34.7151C14.881 34.7018 14.8533 34.6819 14.8309 34.6568C14.784 34.6089 14.7577 34.5445 14.7577 34.4775C14.7577 34.4104 14.784 34.346 14.8309 34.2982L16.4959 32.6332L14.8309 30.9682C14.7823 30.9161 14.7552 30.8474 14.7552 30.7761C14.7552 30.7048 14.7823 30.6362 14.8309 30.584C14.8788 30.5371 14.9432 30.5108 15.0102 30.5108C15.0772 30.5108 15.1416 30.5371 15.1895 30.584L17.2387 32.6332L15.1895 34.6568C15.1671 34.6819 15.1394 34.7018 15.1084 34.7151C15.0774 34.7284 15.0439 34.7347 15.0102 34.7336Z" fill="#5243AA"></path>
<path d="M44.7746 12.5256C44.7409 12.5267 44.7074 12.5204 44.6764 12.5071C44.6454 12.4938 44.6178 12.4739 44.5953 12.4488L42.7254 10.6045C42.6884 10.5552 42.6705 10.4942 42.6748 10.4327C42.6792 10.3712 42.7056 10.3133 42.7492 10.2697C42.7928 10.2261 42.8507 10.1997 42.9122 10.1953C42.9737 10.1909 43.0347 10.2089 43.084 10.2459L44.7746 11.9109L46.4396 10.2459C46.4889 10.2089 46.5499 10.1909 46.6114 10.1953C46.6729 10.1997 46.7308 10.2261 46.7744 10.2697C46.818 10.3133 46.8444 10.3712 46.8488 10.4327C46.8531 10.4942 46.8352 10.5552 46.7982 10.6045L44.9539 12.4488C44.9052 12.4949 44.8416 12.5222 44.7746 12.5256Z" fill="#8777D9"></path>
<path d="M44.7746 10.3484C44.7409 10.3494 44.7074 10.3431 44.6764 10.3298C44.6454 10.3166 44.6177 10.2967 44.5953 10.2715L42.7254 8.40165C42.696 8.37963 42.6717 8.35156 42.6542 8.31934C42.6366 8.28711 42.6262 8.25149 42.6236 8.21489C42.621 8.17828 42.6263 8.14154 42.6391 8.10716C42.6519 8.07278 42.672 8.04156 42.6979 8.01561C42.7239 7.98966 42.7551 7.96959 42.7895 7.95675C42.8239 7.94392 42.8606 7.93863 42.8972 7.94123C42.9338 7.94383 42.9695 7.95427 43.0017 7.97183C43.0339 7.9894 43.062 8.01368 43.084 8.04304L44.7746 9.73361L46.4395 8.04304C46.4616 8.01368 46.4896 7.9894 46.5218 7.97183C46.5541 7.95427 46.5897 7.94383 46.6263 7.94123C46.6629 7.93863 46.6996 7.94392 46.734 7.95675C46.7684 7.96959 46.7996 7.98966 46.8256 8.01561C46.8515 8.04156 46.8716 8.07278 46.8844 8.10716C46.8973 8.14154 46.9026 8.17828 46.9 8.21489C46.8974 8.25149 46.8869 8.28711 46.8693 8.31934C46.8518 8.35156 46.8275 8.37963 46.7981 8.40165L44.9539 10.2715C44.9052 10.3177 44.8416 10.3449 44.7746 10.3484Z" fill="#8777D9"></path>
<path d="M5.40483 24.5902C5.33782 24.5867 5.27424 24.5595 5.22553 24.5133L3.38127 22.6691C3.35191 22.6471 3.32762 22.619 3.31006 22.5868C3.29249 22.5545 3.28205 22.5189 3.27945 22.4823C3.27685 22.4457 3.28215 22.409 3.29498 22.3746C3.30781 22.3402 3.32788 22.309 3.35383 22.283C3.37978 22.2571 3.41101 22.237 3.44539 22.2242C3.47977 22.2113 3.51651 22.2061 3.55311 22.2087C3.58972 22.2113 3.62534 22.2217 3.65756 22.2393C3.68978 22.2568 3.71785 22.2811 3.73987 22.3105L5.40483 23.9754L7.09541 22.3105C7.14473 22.2735 7.20575 22.2555 7.26725 22.2599C7.32876 22.2643 7.38662 22.2907 7.43022 22.3343C7.47382 22.3779 7.50023 22.4357 7.5046 22.4972C7.50897 22.5587 7.49101 22.6197 7.45401 22.6691L5.58414 24.5133C5.56299 24.54 5.53552 24.561 5.50422 24.5745C5.47291 24.5879 5.43875 24.5933 5.40483 24.5902Z" fill="#8777D9"></path>
</g>
<defs>
<clipPath id="clip0">
<rect width="50" height="37.7305" fill="white"></rect>
</clipPath>
</defs>
</svg>
